<svg width="32" height="12" viewBox="0 0 32 12" fill="none" xmlns="http://www.w3.org/2000/svg">
<g clip-path="url(#clip0_1481_532)">
<path d="M3.11995 2.62182C2.0369 2.62182 1.35651 3.29159 1.00661 3.99875V2.72491H-3.05176e-05V11.8467H1.00601V7.97037C1.35409 8.66607 2.03023 9.32138 3.09449 9.32138C5.05683 9.32138 6.16414 7.86548 6.16414 5.9713C6.16414 4.07712 5.0823 2.62122 3.11995 2.62122V2.62182ZM3.01929 8.39358C1.39411 8.39358 0.918682 7.43986 0.918682 5.9713C0.918682 4.50273 1.39411 3.54901 3.01929 3.54901C4.28972 3.54901 5.1199 4.50213 5.1199 5.9713C5.1199 7.44046 4.28972 8.39358 3.01929 8.39358Z" fill="white"/>
<path d="M16.7386 2.62238C15.3171 2.62238 14.1595 3.55017 14.0461 4.7999H15.0018C15.0521 4.09094 15.7817 3.49833 16.7131 3.49833C17.7949 3.49833 18.4111 4.1036 18.4111 4.99281C18.4111 5.19899 18.2849 5.34066 18.0084 5.34066H16.5742C15.0394 5.34066 14.0455 6.17803 14.0455 7.36325C14.0455 8.54847 14.9133 9.32193 16.2468 9.32193C17.2279 9.32193 18.1163 8.69376 18.4104 7.90703V9.21884H19.4165V5.03139C19.4165 3.58815 18.385 2.62238 16.7374 2.62238H16.7386ZM18.4117 6.29438C18.4117 7.63453 17.8465 8.44598 16.399 8.44598C15.5937 8.44598 15.0782 8.02097 15.0782 7.35059C15.0782 6.59039 15.6949 6.12679 16.6385 6.12679H18.4123V6.29438H18.4117Z" fill="white"/>
<path d="M25.9558 2.72528H24.8024L21.8874 5.67385V-0.000244141H20.8686V9.21866H21.8874V6.8434L22.7176 5.97166L25.1832 9.21866H26.4537L23.404 5.33866L25.9558 2.72528Z" fill="white"/>
<path d="M10.0862 2.62182C8.22447 2.62182 7.06683 4.07772 7.06683 5.93271C7.06683 7.78771 8.21174 9.32138 10.0862 9.32138C11.6586 9.32138 12.778 8.45809 12.9921 7.1312H11.9733C11.772 7.94264 11.1177 8.43397 10.0862 8.43397C8.89092 8.43397 8.13654 7.56224 8.06074 6.22209H13.0175C13.0303 6.13166 13.043 5.91282 13.043 5.77115C13.043 4.04456 11.9484 2.62122 10.0868 2.62122L10.0862 2.62182ZM8.11107 5.39738C8.29967 4.25074 8.90669 3.55203 10.0862 3.55203C11.2656 3.55203 11.9357 4.30259 12.0109 5.39738H8.11107Z" fill="white"/>
<path d="M28.8228 2.25323H30.0217L31.0483 3.29196H29.8488L28.8228 2.25323Z" fill="white"/>
<path d="M29.4227 1.64651L28.8229 1.03943L26.5974 3.29231H27.7963L29.4227 1.64651Z" fill="white"/>
<path d="M26.5974 -0.00012207H27.7963L28.8229 1.0386H27.6234L26.5974 -0.00012207Z" fill="white"/>
<path d="M31.0483 -0.00012207H29.8488L28.8228 1.0386H30.0217L31.0483 -0.00012207Z" fill="white"/>
</g>
<defs>
<clipPath id="clip0_1481_532">
<rect width="31.0483" height="11.8474" fill="white"/>
</clipPath>
</defs>
</svg>
