<svg width="1351" height="511" viewBox="0 0 1351 511" fill="none" xmlns="http://www.w3.org/2000/svg">
<g clip-path="url(#clip0_5_47)">
<path d="M133.799 113.082C87.3527 113.082 58.1744 141.971 43.1692 172.472V117.529H0V510.972H43.1432V343.776C58.0704 373.783 87.0666 402.048 132.706 402.048C216.86 402.048 264.347 339.252 264.347 257.552C264.347 175.852 217.953 113.056 133.799 113.056V113.082ZM129.482 362.03C59.7868 362.03 39.3984 320.894 39.3984 257.552C39.3984 194.21 59.7868 153.074 129.482 153.074C183.963 153.074 219.565 194.184 219.565 257.552C219.565 320.92 183.963 362.03 129.482 362.03Z" fill="#0F1109"/>
<path d="M717.824 113.106C656.867 113.106 607.223 153.124 602.36 207.027H643.344C645.503 176.448 676.787 150.888 716.732 150.888C763.126 150.888 789.548 176.994 789.548 215.348C789.548 224.241 784.138 230.351 772.28 230.351H710.777C644.957 230.351 602.333 266.469 602.333 317.59C602.333 368.71 639.548 402.072 696.734 402.072C738.811 402.072 776.909 374.977 789.522 341.044V397.625H832.665V217.012C832.665 154.762 788.429 113.106 717.772 113.106H717.824ZM789.574 271.487C789.574 329.291 765.336 364.29 703.261 364.29C668.726 364.29 646.621 345.958 646.621 317.044C646.621 284.254 673.069 264.259 713.533 264.259H789.6V271.487H789.574Z" fill="#0F1109"/>
<path d="M1113.1 117.547H1063.64L938.629 244.725V-0.0103912H894.939V397.619H938.629V295.169L974.23 257.57L1079.97 397.619H1134.45L1003.67 230.267L1113.1 117.547Z" fill="#0F1109"/>
<path d="M432.54 113.082C352.702 113.082 303.058 175.878 303.058 255.888C303.058 335.897 352.156 402.048 432.54 402.048C499.972 402.048 547.978 364.812 557.158 307.581H513.469C504.835 342.58 476.775 363.772 432.54 363.772C381.283 363.772 348.932 326.172 345.681 268.369H558.25C558.797 264.469 559.343 255.03 559.343 248.919C559.343 174.448 512.403 113.056 432.566 113.056L432.54 113.082ZM347.839 232.798C355.927 183.341 381.959 153.204 432.54 153.204C483.12 153.204 511.857 185.577 515.081 232.798H347.839Z" fill="#0F1109"/>
<path d="M1254.98 97.1864H1306.39L1350.42 141.989H1298.98L1254.98 97.1864Z" fill="#0F1109"/>
<path d="M1280.7 71.018L1254.98 44.8336L1159.54 142.005H1210.95L1280.7 71.018Z" fill="#0F1109"/>
<path d="M1159.54 -0.00549316H1210.95L1254.98 44.7967H1203.54L1159.54 -0.00549316Z" fill="#0F1109"/>
<path d="M1350.42 -0.00549316H1298.98L1254.98 44.7967H1306.39L1350.42 -0.00549316Z" fill="#0F1109"/>
</g>
<defs>
<clipPath id="clip0_5_47">
<rect width="1351" height="511" fill="white"/>
</clipPath>
</defs>
</svg>
